<svg fill="none" xmlns="http://www.w3.org/2000/svg" viewBox="0 0 32 32">
  <path
    d="M31.36 16.36c0-1.32-.1-2.28-.34-3.28H16v5.94h8.82a7.8 7.8 0 0 1-3.27 5.2l-.03.2 4.75 3.67.33.03c3.02-2.79 4.76-6.9 4.76-11.76"
    fill="#4285F4" />
  <path
    d="M16 32c4.32 0 7.95-1.42 10.6-3.88l-5.05-3.9a9.5 9.5 0 0 1-5.55 1.6 9.6 9.6 0 0 1-9.1-6.66l-.19.02L1.77 23l-.06.18A16 16 0 0 0 16 32"
    fill="#34A853" />
  <path d="M6.9 19.16a10 10 0 0 1-.02-6.32v-.22L1.86 8.74l-.16.08a16 16 0 0 0 0 14.36z" fill="#FBBC05" />
  <path
    d="M16 6.19c3 0 5.03 1.3 6.19 2.38l4.51-4.41A15.4 15.4 0 0 0 16 0C9.74 0 4.34 3.6 1.7 8.82l5.18 4.02A9.7 9.7 0 0 1 16 6.19"
    fill="#EB4335" />
</svg>