<svg xmlns="http://www.w3.org/2000/svg" viewBox="0 0 24 24">
  <path fill="currentColor"
    d="m19.1 21.9-3.5-3.45q-.87.28-1.77.41T12 19q-3.35 0-6.12-1.8t-4.35-4.75q-.13-.22-.2-.46t-.05-.49.06-.49.19-.46q.55-.97 1.17-1.9T4.15 7L2.07 4.9q-.27-.28-.27-.69t.3-.71q.28-.28.7-.28t.7.28l17 17q.28.28.29.69t-.29.71q-.28.28-.7.28t-.7-.28M12 16q.28 0 .53-.02t.5-.1l-5.4-5.4q-.08.24-.1.5t-.03.52q0 1.88 1.31 3.19T12 16m0-12q3.35 0 6.14 1.81t4.36 4.76q.13.2.19.44t.06.49-.05.49-.17.43q-.48.93-1.07 1.75t-1.31 1.55q-.35.35-.82.33t-.83-.37l-2-2q-.17-.18-.22-.42t.02-.48q.1-.33.15-.63t.05-.65q0-1.87-1.31-3.19T12 7q-.35 0-.65.05t-.62.15q-.26.08-.5.03T9.8 7l-.82-.82q-.48-.48-.32-1.1t.79-.8q.63-.13 1.26-.2T12 4m1.98 5.65q.27.33.46.71t.23.82q.03.2-.15.27t-.32-.07l-2.05-2.06Q12 9.18 12.09 9t.28-.17q.48.04.88.26t.73.56" />
</svg>